<svg xmlns="http://www.w3.org/2000/svg" width="40" height="30" viewBox="0 0 40 30">
  <g id="Group_9991" data-name="Group 9991" transform="translate(-78 -365)">
    <g id="list" transform="translate(78 362)">
      <path id="Path_27" data-name="Path 27" d="M7.667,7.333H34.333a1.667,1.667,0,1,0,0-3.333H7.667a1.667,1.667,0,0,0,0,3.333Z" transform="translate(4 0.667)" fill="#fff"/>
      <path id="Path_28" data-name="Path 28" d="M34.333,11H7.667a1.667,1.667,0,0,0,0,3.333H34.333a1.667,1.667,0,1,0,0-3.333Z" transform="translate(4 5.333)" fill="#fff"/>
      <path id="Path_29" data-name="Path 29" d="M34.333,18H7.667a1.667,1.667,0,0,0,0,3.333H34.333a1.667,1.667,0,1,0,0-3.333Z" transform="translate(4 10)" fill="#fff"/>
      <circle id="Ellipse_24" data-name="Ellipse 24" cx="3.5" cy="3.5" r="3.5" transform="translate(0 3)" fill="#fff"/>
      <ellipse id="Ellipse_25" data-name="Ellipse 25" cx="3.5" cy="3" rx="3.5" ry="3" transform="translate(0 15)" fill="#fff"/>
      <circle id="Ellipse_26" data-name="Ellipse 26" cx="3.5" cy="3.5" r="3.5" transform="translate(0 26)" fill="#fff"/>
    </g>
  </g>
</svg>
