<svg xmlns="http://www.w3.org/2000/svg" width="23.35" height="23.588" viewBox="0 0 23.35 23.588">
  <g id="Group_9992" data-name="Group 9992" transform="translate(-65 -470.412)">
    <g id="shopping-cart-add" transform="translate(65 470.412)">
      <circle id="Ellipse_10" data-name="Ellipse 10" cx="2" cy="2" r="2" transform="translate(5.146 19.588)" fill="#702de3"/>
      <circle id="Ellipse_11" data-name="Ellipse 11" cx="2" cy="2" r="2" transform="translate(15.146 19.588)" fill="#702de3"/>
      <path id="Path_16" data-name="Path 16" d="M22.81,2.919H20.865V.973a.973.973,0,0,0-1.946,0V2.919H16.973a.973.973,0,1,0,0,1.946h1.946V6.81a.973.973,0,0,0,1.946,0V4.865H22.81a.973.973,0,1,0,0-1.946Z" transform="translate(-0.434)" fill="#702de3"/>
      <path id="Path_17" data-name="Path 17" d="M21.181,9.462a.967.967,0,0,0-1.131.784,2.919,2.919,0,0,1-2.872,2.4H5.271L4.357,4.865h8.291a.973.973,0,1,0,0-1.946H4.127l-.041-.342A2.919,2.919,0,0,0,1.189,0H.973a.973.973,0,1,0,0,1.946h.216a.973.973,0,0,1,.966.859L3.494,14.188a4.865,4.865,0,0,0,4.831,4.3h10.16a.973.973,0,1,0,0-1.946H8.325a2.919,2.919,0,0,1-2.753-1.946H17.179a4.865,4.865,0,0,0,4.788-4,.973.973,0,0,0-.785-1.13Z" fill="#702de3"/>
    </g>
  </g>
</svg>
