<svg xmlns="http://www.w3.org/2000/svg" width="42" height="42" viewBox="0 0 42 42">
  <g id="Group_9989" data-name="Group 9989" transform="translate(-256 -179)">
    <g id="apps" transform="translate(256 179)">
      <path id="Path_21" data-name="Path 21" d="M7,0h5.25a7,7,0,0,1,7,7v5.25a7,7,0,0,1-7,7H7a7,7,0,0,1-7-7V7A7,7,0,0,1,7,0Z" fill="#fff"/>
      <path id="Path_22" data-name="Path 22" d="M284.334,0h5.25a7,7,0,0,1,7,7v5.25a7,7,0,0,1-7,7h-5.25a7,7,0,0,1-7-7V7A7,7,0,0,1,284.334,0Z" transform="translate(-254.584)" fill="#fff"/>
      <path id="Path_23" data-name="Path 23" d="M7,277.333h5.25a7,7,0,0,1,7,7v5.25a7,7,0,0,1-7,7H7a7,7,0,0,1-7-7v-5.25A7,7,0,0,1,7,277.333Z" transform="translate(0 -254.583)" fill="#fff"/>
      <path id="Path_24" data-name="Path 24" d="M284.334,277.333h5.25a7,7,0,0,1,7,7v5.25a7,7,0,0,1-7,7h-5.25a7,7,0,0,1-7-7v-5.25A7,7,0,0,1,284.334,277.333Z" transform="translate(-254.584 -254.583)" fill="#fff"/>
    </g>
  </g>
</svg>
