<svg xmlns="http://www.w3.org/2000/svg" width="9.091" height="9.091" viewBox="0 0 9.091 9.091">
  <g id="Group_15178" data-name="Group 15178" transform="translate(-254.954 -386.954)">
    <g id="Icon_feather-eye-off" data-name="Icon feather-eye-off" transform="translate(254.02 386.02)">
      <path id="Path_14353" data-name="Path 14353" d="M7.629,11.044a3.644,3.644,0,0,1-2.149.745c-2.533,0-3.98-2.895-3.98-2.895A6.676,6.676,0,0,1,3.331,6.745M4.72,6.087A3.3,3.3,0,0,1,5.48,6C8.013,6,9.46,8.895,9.46,8.895a6.694,6.694,0,0,1-.782,1.154M6.247,9.662A1.085,1.085,0,1,1,4.713,8.127" transform="translate(0 -3.415)" fill="none" stroke="#5e5e5f" stroke-linecap="round" stroke-linejoin="round" stroke-width="0.8"/>
      <path id="Path_14354" data-name="Path 14354" d="M1.5,1.5,9.46,9.46" fill="none" stroke="#5e5e5f" stroke-linecap="round" stroke-linejoin="round" stroke-width="0.8"/>
    </g>
  </g>
</svg>
