<svg xmlns="http://www.w3.org/2000/svg" width="6.03" height="11.493" viewBox="0 0 6.03 11.493">
  <g id="Group_9986" data-name="Group 9986" transform="translate(-347 -639)">
    <path id="arrow-left" d="M.42,2.014,2.274.142a.479.479,0,0,1,.68,0h0a.479.479,0,0,1,0,.68l-1.7,1.715h9.765a.479.479,0,0,1,.479.479h0a.479.479,0,0,1-.479.479H1.22L2.954,5.228a.479.479,0,0,1,0,.661h0a.479.479,0,0,1-.68,0L.42,4.045a1.437,1.437,0,0,1,0-2.031Z" transform="translate(347 650.493) rotate(-90)" fill="#303030"/>
  </g>
</svg>
