<svg xmlns="http://www.w3.org/2000/svg" width="14" height="14" viewBox="0 0 14 14">
  <g id="Group_9988" data-name="Group 9988" transform="translate(0)">
    <path id="Path_19" data-name="Path 19" d="M8.418,10.571a1.75,1.75,0,0,0,2.476,0L12.767,8.7a.583.583,0,0,0-.825-.823L10.235,9.582l0-9A.583.583,0,0,0,9.656,0h0a.583.583,0,0,0-.583.583L9.067,9.571l-1.7-1.7a.583.583,0,1,0-.825.825Z" transform="translate(-2.656)" fill="#fff"/>
    <path id="Path_20" data-name="Path 20" d="M13.417,16h0a.583.583,0,0,0-.583.583v2.333a.583.583,0,0,1-.583.583H1.75a.583.583,0,0,1-.583-.583V16.583A.583.583,0,0,0,.583,16h0A.583.583,0,0,0,0,16.583v2.333a1.75,1.75,0,0,0,1.75,1.75h10.5A1.75,1.75,0,0,0,14,18.917V16.583A.583.583,0,0,0,13.417,16Z" transform="translate(0 -6.667)" fill="#fff"/>
  </g>
</svg>
