<svg xmlns="http://www.w3.org/2000/svg" width="19.834" height="23.673" viewBox="0 0 19.834 23.673">
  <g id="Group_9995" data-name="Group 9995" transform="translate(-288 -471.206)">
    <g id="marker_2_" data-name="marker (2)" transform="translate(288 471.206)">
      <path id="Path_14" data-name="Path 14" d="M11.945,6A3.945,3.945,0,1,0,15.89,9.945,3.945,3.945,0,0,0,11.945,6Zm0,5.918a1.973,1.973,0,1,1,1.973-1.973A1.973,1.973,0,0,1,11.945,11.918Z" transform="translate(-2.028 -0.08)" fill="#702de3"/>
      <path id="Path_15" data-name="Path 15" d="M11.862,23.671A5.2,5.2,0,0,1,7.61,21.5C3.851,16.316,1.945,12.418,1.945,9.915a9.917,9.917,0,0,1,19.834,0c0,2.5-1.906,6.4-5.665,11.586a5.2,5.2,0,0,1-4.252,2.17Zm0-21.52A7.775,7.775,0,0,0,4.1,9.917c0,1.982,1.867,5.648,5.256,10.323a3.1,3.1,0,0,0,5.02,0c3.389-4.674,5.256-8.34,5.256-10.323a7.775,7.775,0,0,0-7.766-7.766Z" transform="translate(-1.945 0.002)" fill="#702de3"/>
    </g>
  </g>
</svg>
