<svg xmlns="http://www.w3.org/2000/svg" width="9.267" height="8.494" viewBox="0 0 9.267 8.494">
  <g id="Group_9987" data-name="Group 9987" transform="translate(-28 -768.753)">
    <path id="envelope" d="M7.336,1H1.931A1.933,1.933,0,0,0,0,2.931V7.564A1.933,1.933,0,0,0,1.931,9.494H7.336A1.933,1.933,0,0,0,9.267,7.564V2.931A1.933,1.933,0,0,0,7.336,1Zm-5.406.772H7.336A1.158,1.158,0,0,1,8.41,2.5L5.453,5.458a1.161,1.161,0,0,1-1.639,0L.857,2.5a1.158,1.158,0,0,1,1.073-.729Zm5.406,6.95H1.931A1.158,1.158,0,0,1,.772,7.564V3.51L3.268,6A1.933,1.933,0,0,0,6,6l2.5-2.494V7.564A1.158,1.158,0,0,1,7.336,8.722Z" transform="translate(28 767.753)" fill="#707078"/>
  </g>
</svg>
