<svg xmlns="http://www.w3.org/2000/svg" width="7.048" height="10.571" viewBox="0 0 7.048 10.571">
  <g id="Group_9986" data-name="Group 9986" transform="translate(-4)">
    <path id="Path_13" data-name="Path 13" d="M8.845,0H6.2A2.205,2.205,0,0,0,4,2.2V8.369a2.205,2.205,0,0,0,2.2,2.2H8.845a2.205,2.205,0,0,0,2.2-2.2V2.2A2.205,2.205,0,0,0,8.845,0ZM6.2.881H8.845A1.321,1.321,0,0,1,10.167,2.2V7.048H4.881V2.2A1.321,1.321,0,0,1,6.2.881Zm2.643,8.81H6.2A1.321,1.321,0,0,1,4.881,8.369v-.44h5.286v.44A1.321,1.321,0,0,1,8.845,9.691Z" fill="#707078"/>
  </g>
</svg>
