<svg xmlns="http://www.w3.org/2000/svg" width="22.961" height="27.564" viewBox="0 0 22.961 27.564">
  <g id="Group_9993" data-name="Group 9993" transform="translate(-176.5 -468.233)">
    <path id="cursor-finger" d="M20.351,10.768,13.483,9.394V3.568A3.538,3.538,0,0,0,10.612.047a3.445,3.445,0,0,0-4.02,3.4V11.1l-3.2,4.179a5.766,5.766,0,0,0,.286,7.8l2.756,2.785a5.784,5.784,0,0,0,4.082,1.7h8.712a5.749,5.749,0,0,0,5.742-5.742V16.4a5.757,5.757,0,0,0-4.617-5.631Zm2.32,11.053a3.445,3.445,0,0,1-3.445,3.445H10.514a3.471,3.471,0,0,1-2.451-1.023L5.306,21.454a3.48,3.48,0,0,1-.133-4.735l1.419-1.852v4.657a1.148,1.148,0,0,0,2.3,0V3.445A1.148,1.148,0,0,1,10.24,2.314a1.243,1.243,0,0,1,.946,1.254v6.768a1.149,1.149,0,0,0,.919,1.126L19.9,13.02A3.457,3.457,0,0,1,22.671,16.4Z" transform="translate(174.493 468.234)" fill="#702de3"/>
  </g>
</svg>
