<svg width="16" height="16" viewBox="0 0 16 16" fill="none" xmlns="http://www.w3.org/2000/svg">
<path d="M13.3327 5.4987V11.9987C13.3327 13.9987 12.1393 14.6654 10.666 14.6654H5.33268C3.85935 14.6654 2.66602 13.9987 2.66602 11.9987V5.4987C2.66602 3.33203 3.85935 2.83203 5.33268 2.83203C5.33268 3.24536 5.49933 3.6187 5.77266 3.89203C6.046 4.16536 6.41935 4.33203 6.83268 4.33203H9.16602C9.99268 4.33203 10.666 3.6587 10.666 2.83203C12.1393 2.83203 13.3327 3.33203 13.3327 5.4987Z" stroke="#121212" stroke-linecap="round" stroke-linejoin="round"/>
<path d="M10.6673 2.83203C10.6673 3.6587 9.99398 4.33203 9.16732 4.33203H6.83398C6.42065 4.33203 6.0473 4.16536 5.77397 3.89203C5.50063 3.6187 5.33398 3.24536 5.33398 2.83203C5.33398 2.00536 6.00732 1.33203 6.83398 1.33203H9.16732C9.58065 1.33203 9.954 1.4987 10.2273 1.77203C10.5007 2.04537 10.6673 2.4187 10.6673 2.83203Z" stroke="#121212" stroke-linecap="round" stroke-linejoin="round"/>
<path d="M5.33398 8.66797H8.00065" stroke="#121212" stroke-linecap="round" stroke-linejoin="round"/>
<path d="M5.33398 11.332H10.6673" stroke="#121212" stroke-linecap="round" stroke-linejoin="round"/>
</svg>
