<svg id="Group_9985" data-name="Group 9985" xmlns="http://www.w3.org/2000/svg" width="24" height="24" viewBox="0 0 24 24">
  <path id="Path_2" data-name="Path 2" d="M9,14h6a1,1,0,0,0,0-2H9a1,1,0,0,0,0,2Z" fill="#702de3"/>
  <path id="Path_3" data-name="Path 3" d="M19,0H5A5.006,5.006,0,0,0,0,5V6A3,3,0,0,0,1,8.234V19a5.006,5.006,0,0,0,5,5H18a5.006,5.006,0,0,0,5-5V8.234A3,3,0,0,0,24,6V5A5.006,5.006,0,0,0,19,0ZM2,5A3,3,0,0,1,5,2H19a3,3,0,0,1,3,3V6a1,1,0,0,1-1,1H3A1,1,0,0,1,2,6ZM21,19a3,3,0,0,1-3,3H6a3,3,0,0,1-3-3V9H21Z" fill="#702de3"/>
</svg>
