<svg xmlns="http://www.w3.org/2000/svg" width="50.01" height="50" viewBox="0 0 50.01 50">
  <g id="Group_9987" data-name="Group 9987" transform="translate(-73 -171)">
    <g id="box_1_" data-name="box (1)" transform="translate(73 170.948)">
      <path id="Path_25" data-name="Path 25" d="M39.583.052H10.417A10.417,10.417,0,0,0,0,10.469H0a6.25,6.25,0,0,0,6.25,6.25h37.5A6.188,6.188,0,0,0,50,10.933,10.427,10.427,0,0,0,40.037.062Q39.81.052,39.583.052Z" transform="translate(0)" fill="#fff"/>
      <path id="Path_26" data-name="Path 26" d="M65.084,213.385H23.417a2.083,2.083,0,0,0-2.083,2.083v16.667a10.429,10.429,0,0,0,10.417,10.417h25a10.429,10.429,0,0,0,10.417-10.417V215.468A2.083,2.083,0,0,0,65.084,213.385ZM50.5,223.8H38a2.083,2.083,0,1,1,0-4.167H50.5a2.083,2.083,0,1,1,0,4.167Z" transform="translate(-19.251 -192.5)" fill="#fff"/>
    </g>
  </g>
</svg>
