<svg xmlns="http://www.w3.org/2000/svg" width="7.5" height="10" viewBox="0 0 7.5 10">
  <g id="Group_9985" data-name="Group 9985" transform="translate(-29 -724)">
    <g id="user_1_" data-name="user (1)" transform="translate(26 724)">
      <path id="Path_11" data-name="Path 11" d="M8.5,5A2.5,2.5,0,1,0,6,2.5,2.5,2.5,0,0,0,8.5,5ZM8.5.833A1.667,1.667,0,1,1,6.833,2.5,1.667,1.667,0,0,1,8.5.833Z" transform="translate(-1.75)" fill="#707078"/>
      <path id="Path_12" data-name="Path 12" d="M6.75,14A3.754,3.754,0,0,0,3,17.75a.417.417,0,1,0,.833,0,2.917,2.917,0,0,1,5.833,0,.417.417,0,1,0,.833,0A3.754,3.754,0,0,0,6.75,14Z" transform="translate(0 -8.167)" fill="#707078"/>
    </g>
  </g>
</svg>
