<svg xmlns="http://www.w3.org/2000/svg" width="14.662" height="16" viewBox="0 0 14.662 16">
  <g id="Group_9983" data-name="Group 9983" transform="translate(-328.669 -702)">
    <path id="filter" d="M9.667,16a.667.667,0,0,1-.4-.133l-2.667-2a.667.667,0,0,1-.267-.533V9.587L1.657,4.325A2.6,2.6,0,0,1,3.6,0h9.467a2.6,2.6,0,0,1,1.942,4.325L10.334,9.587v5.747A.667.667,0,0,1,9.667,16Zm-2-3L9,14V9.333a.667.667,0,0,1,.169-.443l4.845-5.451a1.267,1.267,0,0,0-.947-2.106H3.6a1.267,1.267,0,0,0-.947,2.105L7.5,8.891a.667.667,0,0,1,.168.443Z" transform="translate(327.667 702)" fill="#702de3"/>
  </g>
</svg>
