<svg xmlns="http://www.w3.org/2000/svg" width="6.03" height="11.493" viewBox="0 0 6.03 11.493">
  <g id="Group_9985" data-name="Group 9985" transform="translate(-347 -602)">
    <path id="arrow-left" d="M.423,9.72l1.853,1.873a.479.479,0,0,0,.68,0h0a.479.479,0,0,0,0-.68L1.251,9.2h9.765a.479.479,0,0,0,.479-.479h0a.479.479,0,0,0-.479-.479H1.223L2.956,6.507a.479.479,0,0,0,0-.661h0a.479.479,0,0,0-.68,0L.423,7.69a1.437,1.437,0,0,0,0,2.031Z" transform="translate(358.735 601.997) rotate(90)" fill="#303030"/>
  </g>
</svg>
