<svg xmlns="http://www.w3.org/2000/svg" width="16.004" height="15.323" viewBox="0 0 16.004 15.323">
  <g id="Group_9996" data-name="Group 9996" transform="translate(-38.498 -766.338)">
    <g id="_01_align_center" data-name="01 align center" transform="translate(38.496 765.315)">
      <path id="Path_33" data-name="Path 33" d="M11.867,5.151A5.335,5.335,0,0,0,1.335,6.343a5.269,5.269,0,0,0,.6,2.448A3.661,3.661,0,0,0,3.669,15.68H8V14.346H3.669a2.328,2.328,0,0,1-.582-4.584l.958-.247-.589-.8A3.991,3.991,0,1,1,10.631,5.81l.067.506.5.067a3.995,3.995,0,0,1,.8,7.731V15.5a5.328,5.328,0,0,0-.139-10.354Z" transform="translate(0 0)" fill="#fff"/>
      <path id="Path_34" data-name="Path 34" d="M15.628,15.944,16.571,15l-2.2-2.2a1.334,1.334,0,0,0-1.886,0l-2.2,2.2.943.943,1.529-1.529v5.726H14.1V14.415Z" transform="translate(-3.428 -3.794)" fill="#fff"/>
    </g>
  </g>
</svg>
